<svg xmlns="http://www.w3.org/2000/svg" xmlns:xlink="http://www.w3.org/1999/xlink" width="1920" zoomAndPan="magnify" viewBox="0 0 1440 809.999993" height="1080" preserveAspectRatio="xMidYMid meet" version="1.0"><defs><g/><clipPath id="e055ee9fd5"><path d="M 335.644531 205 L 419 205 L 419 307.546875 L 335.644531 307.546875 Z M 335.644531 205 " clip-rule="nonzero"/></clipPath><clipPath id="3e55470aab"><path d="M 415 147.046875 L 519 147.046875 L 519 294 L 415 294 Z M 415 147.046875 " clip-rule="nonzero"/></clipPath><clipPath id="11a169228b"><path d="M 345.359375 514.324219 L 485.609375 514.324219 L 485.609375 728.699219 L 345.359375 728.699219 Z M 345.359375 514.324219 " clip-rule="nonzero"/></clipPath><clipPath id="cf97e46722"><path d="M 58.953125 319.941406 L 246 319.941406 L 246 503.453125 L 58.953125 503.453125 Z M 58.953125 319.941406 " clip-rule="nonzero"/></clipPath><clipPath id="361732f28b"><path d="M 152.4375 319.941406 C 100.808594 319.941406 58.953125 361.023438 58.953125 411.699219 C 58.953125 462.375 100.808594 503.453125 152.4375 503.453125 C 204.070312 503.453125 245.925781 462.375 245.925781 411.699219 C 245.925781 361.023438 204.070312 319.941406 152.4375 319.941406 Z M 152.4375 319.941406 " clip-rule="nonzero"/></clipPath><clipPath id="e7c1de418a"><path d="M 95.222656 354.175781 L 209.65625 354.175781 L 209.65625 468.609375 L 95.222656 468.609375 Z M 95.222656 354.175781 " clip-rule="nonzero"/></clipPath><clipPath id="f2e420e624"><path d="M 152.4375 354.175781 C 120.839844 354.175781 95.222656 379.792969 95.222656 411.394531 C 95.222656 442.992188 120.839844 468.609375 152.4375 468.609375 C 184.039062 468.609375 209.65625 442.992188 209.65625 411.394531 C 209.65625 379.792969 184.039062 354.175781 152.4375 354.175781 Z M 152.4375 354.175781 " clip-rule="nonzero"/></clipPath><clipPath id="a496269bb7"><path d="M 190.515625 266.992188 L 249.65625 266.992188 L 249.65625 563.640625 L 190.515625 563.640625 Z M 190.515625 266.992188 " clip-rule="nonzero"/></clipPath><clipPath id="6665d69eb3"><path d="M 904.191406 299.316406 L 1385.613281 299.316406 L 1385.613281 524.195312 L 904.191406 524.195312 Z M 904.191406 299.316406 " clip-rule="nonzero"/></clipPath></defs><rect x="-144" width="1728" fill="#ffffff" y="-80.999999" height="971.999992" fill-opacity="1"/><rect x="-144" width="1728" fill="#023d6b" y="-80.999999" height="971.999992" fill-opacity="1"/><g clip-path="url(#e055ee9fd5)"><path fill="#ffffff" d="M 399.261719 303.484375 C 395.417969 302.160156 391.535156 300.902344 387.738281 299.488281 C 377.761719 295.78125 368.136719 290.925781 359.949219 284.125 C 351.757812 277.328125 345.046875 268.519531 341.804688 258.410156 C 339.640625 251.699219 339.023438 244.613281 338.425781 237.59375 C 337.5 226.84375 336.570312 216.074219 335.644531 205.324219 C 342.246094 216.425781 353.058594 224.417969 364.40625 230.597656 C 375.753906 236.777344 387.890625 241.4375 399.171875 247.703125 C 404.84375 250.859375 410.472656 254.589844 413.894531 260.085938 C 417.515625 265.9375 418.242188 273.15625 417.757812 280.019531 C 417.339844 286.003906 416.058594 291.941406 416.5 297.921875 C 416.71875 300.878906 417.359375 304.167969 418.375 307.171875 C 418.199219 307.082031 418 307.015625 417.824219 306.929688 C 413.609375 305.074219 409.480469 302.910156 405.527344 300.484375 C 397.605469 295.582031 390.363281 289.554688 383.832031 282.757812 C 383.035156 281.898438 382.242188 281.011719 381.445312 280.152344 L 380.851562 279.492188 C 380.652344 279.269531 380.453125 279.050781 380.277344 278.828125 L 379.128906 277.480469 L 377.980469 276.136719 L 377.40625 275.449219 C 377.207031 275.230469 377.054688 274.988281 376.855469 274.746094 L 374.691406 271.941406 C 374.515625 271.699219 374.316406 271.476562 374.140625 271.234375 L 373.632812 270.507812 L 372.59375 269.050781 L 371.558594 267.59375 C 371.382812 267.351562 371.203125 267.105469 371.050781 266.863281 L 370.566406 266.113281 L 368.621094 263.132812 L 368.136719 262.382812 C 367.980469 262.140625 367.828125 261.875 367.671875 261.609375 L 366.769531 260.085938 C 361.890625 251.921875 357.804688 243.222656 354.472656 234.238281 C 357.144531 243.445312 360.609375 252.449219 364.957031 261.082031 L 365.773438 262.691406 C 365.90625 262.957031 366.039062 263.246094 366.195312 263.507812 L 366.636719 264.304688 L 368.378906 267.484375 L 368.820312 268.277344 C 368.976562 268.542969 369.128906 268.785156 369.285156 269.050781 L 370.234375 270.59375 L 371.183594 272.140625 L 371.644531 272.914062 C 371.800781 273.175781 371.976562 273.421875 372.152344 273.664062 L 374.164062 276.6875 C 374.339844 276.929688 374.492188 277.195312 374.671875 277.4375 L 375.199219 278.167969 L 376.257812 279.644531 L 377.339844 281.125 C 377.519531 281.367188 377.695312 281.609375 377.894531 281.851562 L 378.46875 282.558594 C 379.21875 283.507812 379.96875 284.480469 380.742188 285.429688 C 386.257812 292.074219 392.394531 298.1875 399.261719 303.484375 Z M 399.261719 303.484375 " fill-opacity="1" fill-rule="nonzero"/></g><g clip-path="url(#3e55470aab)"><path fill="#ffffff" d="M 515.167969 227.417969 C 510.46875 242.496094 500.46875 255.496094 488.570312 265.894531 C 484.574219 269.378906 480.335938 272.605469 475.789062 275.363281 C 469.058594 279.445312 461.550781 282.117188 454.203125 284.875 C 447.335938 287.4375 440.449219 289.910156 433.539062 292.335938 C 432.394531 292.734375 431.222656 293.152344 430.074219 293.550781 C 430.164062 293.023438 430.25 292.492188 430.339844 291.984375 L 430.539062 290.878906 C 430.605469 290.503906 430.671875 290.152344 430.757812 289.777344 L 431.246094 287.589844 L 431.511719 286.488281 L 431.796875 285.382812 L 432.082031 284.28125 C 432.171875 283.90625 432.261719 283.550781 432.394531 283.175781 C 433.253906 280.261719 434.179688 277.371094 435.285156 274.480469 L 436.101562 272.316406 C 436.234375 271.964844 436.367188 271.589844 436.519531 271.234375 L 436.960938 270.175781 L 437.867188 268.035156 L 438.308594 266.976562 C 438.464844 266.621094 438.640625 266.269531 438.792969 265.914062 C 439.433594 264.503906 440.074219 263.089844 440.738281 261.699219 L 442.8125 257.527344 C 443.144531 256.820312 443.539062 256.136719 443.894531 255.453125 L 444.996094 253.378906 C 445.371094 252.691406 445.726562 251.988281 446.101562 251.300781 L 447.269531 249.273438 L 448.441406 247.242188 C 448.835938 246.558594 449.210938 245.871094 449.632812 245.210938 L 452.082031 241.191406 C 452.878906 239.847656 453.761719 238.523438 454.597656 237.21875 C 455.460938 235.894531 456.296875 234.570312 457.179688 233.269531 L 459.851562 229.363281 L 461.199219 227.417969 L 461.53125 226.933594 L 461.882812 226.449219 L 462.566406 225.5 L 465.347656 221.65625 C 465.8125 221.019531 466.277344 220.378906 466.738281 219.738281 L 468.175781 217.839844 C 470.09375 215.324219 471.96875 212.785156 473.980469 210.3125 C 481.835938 200.378906 490.136719 190.753906 498.722656 181.394531 C 489.410156 190.046875 480.316406 198.964844 471.640625 208.304688 C 469.433594 210.621094 467.335938 213.003906 465.195312 215.390625 L 463.605469 217.175781 C 463.074219 217.773438 462.566406 218.390625 462.039062 218.988281 L 458.925781 222.628906 L 458.152344 223.535156 L 457.753906 223.996094 L 457.378906 224.460938 L 455.855469 226.316406 L 452.832031 230.046875 C 451.839844 231.304688 450.867188 232.585938 449.898438 233.863281 C 448.925781 235.144531 447.933594 236.402344 447.003906 237.707031 L 444.15625 241.613281 C 443.671875 242.253906 443.230469 242.9375 442.765625 243.597656 L 441.398438 245.585938 L 440.03125 247.570312 C 439.589844 248.234375 439.148438 248.917969 438.707031 249.601562 L 437.402344 251.632812 C 436.960938 252.316406 436.519531 252.980469 436.101562 253.6875 L 433.585938 257.859375 C 432.769531 259.269531 431.996094 260.683594 431.179688 262.117188 C 430.980469 262.472656 430.78125 262.824219 430.582031 263.179688 L 430.007812 264.257812 L 428.882812 266.445312 L 428.308594 267.527344 C 428.109375 267.878906 427.957031 268.253906 427.78125 268.628906 L 426.71875 270.859375 C 425.308594 273.816406 424.050781 276.886719 422.855469 279.976562 C 422.703125 280.351562 422.570312 280.75 422.4375 281.144531 L 422.019531 282.316406 L 421.929688 282.601562 C 421.929688 282.515625 421.929688 282.402344 421.929688 282.316406 C 421.886719 279.492188 421.664062 276.578125 421.355469 273.773438 C 420.78125 268.585938 419.898438 263.816406 419.304688 260.90625 C 418.929688 259.050781 418.664062 257.925781 418.640625 257.878906 C 415.242188 247.328125 413.277344 236.402344 417.339844 225.675781 C 420.230469 218.039062 425.726562 212.011719 432.171875 206.847656 C 436.652344 203.25 441.597656 200.027344 446.410156 196.980469 C 448.308594 195.765625 450.183594 194.574219 452.082031 193.335938 C 456.054688 190.777344 460.027344 188.171875 463.957031 185.480469 C 474 178.59375 483.691406 171.21875 492.210938 162.742188 C 497.066406 157.910156 501.527344 152.742188 505.476562 147.09375 C 510.046875 160.027344 514.507812 173.097656 516.847656 186.605469 C 519.121094 200.179688 519.230469 214.308594 515.167969 227.417969 Z M 515.167969 227.417969 " fill-opacity="1" fill-rule="nonzero"/></g><g clip-path="url(#11a169228b)"><path fill="#ffffff" d="M 423.082031 634.78125 C 422.960938 635.429688 422.839844 636.078125 422.722656 636.730469 C 421.121094 645.757812 418.882812 654.628906 416.183594 663.386719 C 414.6875 668.25 413.199219 673.113281 411.949219 678.050781 C 410.183594 685.058594 409.398438 692.175781 409.34375 699.390625 C 409.292969 706.375 409.777344 713.324219 410.796875 720.230469 C 411.199219 722.933594 411.71875 725.621094 412.183594 728.3125 C 412.214844 728.496094 412.226562 728.679688 412.144531 728.886719 C 412.042969 728.578125 411.933594 728.269531 411.839844 727.957031 C 409.867188 721.238281 408.40625 714.410156 407.503906 707.460938 C 406.769531 701.808594 406.464844 696.136719 406.707031 690.441406 C 406.894531 685.941406 407.550781 681.496094 408.472656 677.089844 C 409.636719 671.546875 411.167969 666.09375 412.621094 660.628906 C 414.605469 653.175781 416.207031 645.640625 417.359375 638.015625 C 418.699219 629.152344 419.375 620.242188 419.242188 611.277344 C 419.171875 606.632812 418.902344 602.003906 418.421875 597.386719 C 418.097656 594.261719 417.726562 591.144531 417.371094 588.023438 C 417.335938 587.722656 417.277344 587.421875 417.136719 587.117188 C 417.054688 587.53125 416.976562 587.949219 416.890625 588.363281 C 416.1875 591.683594 415.003906 594.84375 413.585938 597.917969 C 412.550781 600.164062 411.503906 602.40625 410.359375 604.597656 C 407.238281 610.582031 405.046875 616.902344 403.417969 623.433594 C 402.941406 625.34375 402.542969 627.277344 402.105469 629.203125 C 402.074219 629.324219 402.015625 629.445312 401.96875 629.566406 C 401.917969 629.558594 401.867188 629.550781 401.816406 629.546875 C 401.816406 629.128906 401.824219 628.707031 401.8125 628.289062 C 401.699219 624.503906 401.792969 620.726562 402.378906 616.972656 C 402.898438 613.644531 403.847656 610.429688 405.054688 607.296875 C 406.144531 604.480469 407.269531 601.675781 408.441406 598.894531 C 410.34375 594.355469 411.746094 589.683594 412.535156 584.820312 C 413.0625 581.554688 413.730469 578.316406 414.308594 575.0625 C 414.542969 573.753906 414.730469 572.433594 414.898438 571.117188 C 414.941406 570.75 414.84375 570.363281 414.789062 569.988281 C 413.917969 564.105469 413.125 558.210938 412.519531 552.292969 C 412.503906 552.117188 412.449219 551.945312 412.390625 551.675781 C 412.222656 551.878906 412.109375 552 412.015625 552.132812 C 409.988281 554.894531 407.570312 557.273438 404.875 559.378906 C 404.546875 559.632812 404.304688 559.925781 404.109375 560.296875 C 403.476562 561.492188 402.796875 562.667969 402.152344 563.859375 C 399.738281 568.324219 398.128906 573.089844 396.816406 577.976562 C 395.871094 581.511719 394.894531 585.042969 393.808594 588.539062 C 392.097656 594.0625 389.160156 598.882812 385.136719 603.042969 C 384.957031 603.230469 384.78125 603.429688 384.578125 603.59375 C 384.1875 603.910156 383.753906 604.152344 383.183594 604.101562 C 383.0625 603.644531 383.242188 603.253906 383.414062 602.871094 C 383.511719 602.65625 383.65625 602.460938 383.800781 602.277344 C 387.730469 597.285156 390.230469 591.640625 391.546875 585.445312 C 392.269531 582.050781 393.035156 578.664062 393.832031 575.285156 C 394.667969 571.753906 395.882812 568.355469 397.476562 565.09375 C 397.558594 564.925781 397.632812 564.75 397.734375 564.527344 C 397.617188 564.539062 397.546875 564.527344 397.503906 564.554688 C 393.023438 567.410156 388.699219 570.46875 384.769531 574.066406 C 380.40625 578.066406 376.976562 582.773438 374.121094 587.929688 C 371.621094 592.453125 369.554688 597.183594 367.5625 601.945312 C 365.339844 607.253906 363.121094 612.5625 360.851562 617.851562 C 359.769531 620.363281 358.523438 622.800781 357.148438 625.167969 C 354.597656 629.566406 351.109375 633.101562 347.136719 636.195312 C 346.554688 636.648438 346.109375 636.785156 345.359375 636.785156 C 345.5 636.230469 345.769531 635.773438 346.144531 635.378906 C 346.421875 635.085938 346.71875 634.808594 347.011719 634.53125 C 351.359375 630.441406 354.582031 625.601562 356.890625 620.09375 C 359.308594 614.324219 361.519531 608.476562 363.699219 602.613281 C 365.53125 597.6875 367.445312 592.792969 369.71875 588.046875 C 374.710938 577.628906 381.714844 568.835938 390.902344 561.808594 C 393.492188 559.828125 396.101562 557.875 398.65625 555.851562 C 400 554.789062 401.285156 553.644531 402.519531 552.464844 C 405.703125 549.433594 407.972656 545.761719 409.808594 541.804688 C 410.230469 540.898438 410.585938 539.964844 411 539.054688 C 411.222656 538.5625 411.277344 538.066406 411.246094 537.53125 C 410.976562 533.164062 410.703125 528.792969 410.472656 524.421875 C 410.324219 521.59375 410.238281 518.761719 410.140625 515.933594 C 410.121094 515.414062 410.179688 514.894531 410.203125 514.324219 C 414.488281 514.324219 418.710938 514.324219 423.027344 514.324219 C 423.054688 514.71875 423.113281 515.113281 423.105469 515.503906 C 423.078125 517.003906 423.046875 518.503906 422.976562 520 C 422.949219 520.578125 423.09375 521.019531 423.476562 521.480469 C 424.914062 523.226562 426.269531 525.035156 427.707031 526.78125 C 431.902344 531.875 436.742188 536.296875 441.96875 540.308594 C 445.703125 543.179688 449.46875 546.011719 453.152344 548.953125 C 455.378906 550.730469 457.515625 552.632812 459.613281 554.570312 C 464.992188 559.539062 468.976562 565.484375 471.792969 572.234375 C 473.230469 575.683594 474.429688 579.21875 475.628906 582.753906 C 475.964844 583.742188 476.339844 584.722656 476.71875 585.695312 C 478.195312 589.511719 480.566406 592.734375 483.351562 595.675781 C 483.894531 596.246094 484.453125 596.796875 485.011719 597.347656 C 485.449219 597.78125 485.71875 598.289062 485.78125 598.9375 C 485.359375 599.113281 484.96875 599.011719 484.605469 598.855469 C 484.328125 598.734375 484.0625 598.558594 483.824219 598.367188 C 479.40625 594.820312 475.765625 590.640625 473.320312 585.480469 C 472.199219 583.113281 471.078125 580.75 469.859375 578.433594 C 465.496094 570.144531 459.507812 563.253906 451.914062 557.761719 C 450.117188 556.46875 448.292969 555.214844 446.480469 553.945312 C 446.332031 553.84375 446.167969 553.761719 445.902344 553.605469 C 445.925781 553.988281 445.945312 554.265625 445.960938 554.539062 C 446.148438 557.792969 446.339844 561.046875 446.523438 564.300781 C 446.753906 568.296875 447.191406 572.261719 448.359375 576.117188 C 449.144531 578.695312 450.304688 581.066406 452.113281 583.097656 C 452.820312 583.898438 453.488281 584.734375 454.265625 585.667969 C 453.984375 585.59375 453.816406 585.570312 453.664062 585.511719 C 451.703125 584.789062 450.042969 583.636719 448.679688 582.050781 C 447.21875 580.355469 446.125 578.445312 445.230469 576.410156 C 443.757812 573.0625 442.777344 569.558594 442.09375 565.976562 C 441.363281 562.121094 440.679688 558.257812 439.992188 554.394531 C 439.746094 553.03125 439.734375 551.652344 439.890625 550.269531 C 439.914062 550.058594 439.925781 549.847656 439.949219 549.582031 C 433.863281 545.546875 428.027344 541.191406 422.988281 535.84375 C 422.9375 535.871094 422.882812 535.894531 422.832031 535.921875 C 422.832031 536.148438 422.832031 536.375 422.832031 536.601562 C 422.882812 544.503906 423.042969 552.402344 423.496094 560.289062 C 423.859375 566.632812 424.28125 572.972656 424.625 579.316406 C 424.925781 584.851562 425.15625 590.390625 425.398438 595.925781 C 425.414062 596.386719 425.554688 596.738281 425.84375 597.082031 C 428.101562 599.734375 430.125 602.539062 431.890625 605.546875 C 432.960938 607.367188 434.273438 609.046875 435.457031 610.800781 C 436.601562 612.5 437.777344 614.175781 438.84375 615.917969 C 440.191406 618.121094 441.199219 620.480469 441.589844 623.066406 C 441.992188 625.726562 441.875 628.378906 441.449219 631.023438 C 441.429688 631.132812 441.378906 631.234375 441.308594 631.4375 C 441.214844 631.191406 441.152344 631.042969 441.101562 630.890625 C 440.027344 627.554688 438.632812 624.347656 437.085938 621.210938 C 436.082031 619.171875 434.707031 617.375 433.261719 615.628906 C 432.019531 614.125 430.746094 612.648438 429.515625 611.136719 C 428.117188 609.417969 426.753906 607.675781 425.773438 605.671875 C 425.746094 605.617188 425.679688 605.578125 425.5625 605.464844 C 425.546875 605.695312 425.53125 605.847656 425.53125 606 C 425.496094 610.402344 425.335938 614.800781 424.988281 619.191406 C 424.953125 619.632812 425.015625 620.089844 425.097656 620.527344 C 425.539062 622.9375 425.980469 625.347656 426.457031 627.75 C 427.496094 632.976562 428.835938 638.132812 430.167969 643.289062 C 431.507812 648.46875 432.832031 653.652344 433.867188 658.90625 C 435.101562 665.179688 435.761719 671.507812 435.699219 677.910156 C 435.652344 682.960938 435.335938 687.988281 434.679688 692.996094 C 434.550781 693.96875 434.191406 694.875 433.734375 695.464844 C 433.5 694.628906 433.371094 693.824219 433.390625 693 C 433.4375 691.167969 433.546875 689.339844 433.53125 687.507812 C 433.511719 684.34375 433.488281 681.175781 433.339844 678.015625 C 433.039062 671.722656 431.992188 665.53125 430.292969 659.46875 C 428.796875 654.132812 427.167969 648.835938 425.628906 643.515625 C 424.84375 640.796875 424.117188 638.0625 423.367188 635.335938 C 423.316406 635.152344 423.265625 634.972656 423.214844 634.789062 C 423.167969 634.785156 423.125 634.785156 423.082031 634.78125 " fill-opacity="1" fill-rule="nonzero"/></g><g clip-path="url(#cf97e46722)"><g clip-path="url(#361732f28b)"><path fill="#ffffff" d="M 58.953125 319.941406 L 246.046875 319.941406 L 246.046875 503.453125 L 58.953125 503.453125 Z M 58.953125 319.941406 " fill-opacity="1" fill-rule="nonzero"/></g></g><g clip-path="url(#e7c1de418a)"><g clip-path="url(#f2e420e624)"><path fill="#023d6b" d="M 95.222656 354.175781 L 209.65625 354.175781 L 209.65625 468.609375 L 95.222656 468.609375 Z M 95.222656 354.175781 " fill-opacity="1" fill-rule="nonzero"/></g></g><g clip-path="url(#a496269bb7)"><path fill="#023d6b" d="M 190.515625 266.992188 L 249.65625 266.992188 L 249.65625 563.625 L 190.515625 563.625 Z M 190.515625 266.992188 " fill-opacity="1" fill-rule="nonzero"/></g><g fill="#ffffff" fill-opacity="1"><g transform="translate(123.920405, 440.15636)"><g><path d="M 38.425781 -32.5625 L 26.222656 -32.5625 L 26.222656 -44.761719 L 16.636719 -44.761719 L 16.636719 -32.5625 L 4.515625 -32.5625 L 4.515625 -22.976562 L 16.636719 -22.976562 L 16.636719 -10.855469 L 26.222656 -10.855469 L 26.222656 -22.976562 L 38.425781 -22.976562 Z M 38.425781 -32.5625 "/></g></g></g><g fill="#ffffff" fill-opacity="1"><g transform="translate(166.750386, 440.15636)"><g><path d="M 38.425781 -32.5625 L 26.222656 -32.5625 L 26.222656 -44.761719 L 16.636719 -44.761719 L 16.636719 -32.5625 L 4.515625 -32.5625 L 4.515625 -22.976562 L 16.636719 -22.976562 L 16.636719 -10.855469 L 26.222656 -10.855469 L 26.222656 -22.976562 L 38.425781 -22.976562 Z M 38.425781 -32.5625 "/></g></g></g><g fill="#ffffff" fill-opacity="1"><g transform="translate(198.609795, 503.399576)"><g><path d="M 97.503906 -182.851562 L 70.152344 -182.851562 L 70.152344 -183.105469 L 17.726562 -183.105469 L 17.726562 -156.261719 L 31.152344 -156.261719 L 31.152344 -26.84375 L 17.726562 -26.84375 L 17.726562 0 L 88.132812 0 L 88.132812 -26.84375 L 75.21875 -26.84375 L 75.21875 -58.25 L 97.503906 -58.25 C 138.277344 -58.25 165.378906 -82.816406 165.378906 -120.042969 C 165.378906 -157.78125 138.277344 -182.851562 97.503906 -182.851562 Z M 97.757812 -90.667969 L 75.21875 -90.667969 L 75.21875 -149.421875 L 97.503906 -149.421875 C 111.6875 -149.421875 121.308594 -137.773438 121.308594 -120.296875 C 121.308594 -102.570312 111.941406 -90.667969 97.757812 -90.667969 Z M 97.757812 -90.667969 "/></g></g></g><g fill="#ffffff" fill-opacity="1"><g transform="translate(372.052458, 503.399576)"><g><path d="M 65.847656 -26.84375 L 65.847656 -183.105469 L 8.105469 -183.105469 L 8.105469 -156.261719 L 23.804688 -156.261719 L 23.804688 -26.84375 L 8.105469 -26.84375 L 8.105469 0 L 81.296875 0 L 81.296875 -26.84375 Z M 65.847656 -26.84375 "/></g></g></g><g fill="#ffffff" fill-opacity="1"><g transform="translate(461.17922, 503.399576)"><g><path d="M 143.851562 -30.644531 L 134.480469 -30.644531 C 132.199219 -30.644531 130.679688 -32.417969 130.679688 -35.457031 L 130.679688 -71.925781 C 130.679688 -107.382812 106.621094 -130.679688 70.152344 -130.679688 C 35.457031 -130.679688 10.636719 -110.421875 10.636719 -83.574219 L 49.890625 -83.574219 C 49.890625 -91.425781 57.234375 -100.035156 70.152344 -100.035156 C 82.816406 -100.035156 91.425781 -92.945312 91.425781 -82.308594 C 91.425781 -79.523438 86.867188 -76.992188 79.523438 -75.472656 C 75.722656 -74.710938 73.699219 -74.710938 44.574219 -71.925781 C 23.804688 -69.394531 9.878906 -55.464844 9.878906 -36.722656 C 9.878906 -13.675781 26.085938 1.773438 50.652344 1.773438 C 71.164062 1.773438 90.160156 -11.648438 97.757812 -31.910156 L 99.53125 -31.910156 L 99.023438 -27.605469 C 96.746094 -11.144531 106.621094 0 124.097656 0 L 143.851562 0 Z M 65.339844 -28.113281 C 55.96875 -28.113281 49.890625 -33.175781 49.890625 -41.027344 C 49.890625 -48.117188 54.195312 -51.410156 63.3125 -53.183594 C 68.125 -54.195312 73.191406 -54.703125 78.511719 -55.714844 C 83.828125 -56.730469 88.386719 -58.503906 90.667969 -61.035156 L 91.425781 -60.78125 L 91.425781 -49.890625 C 89.90625 -36.722656 79.523438 -28.113281 65.339844 -28.113281 Z M 65.339844 -28.113281 "/></g></g></g><g fill="#ffffff" fill-opacity="1"><g transform="translate(609.301774, 503.399576)"><g><path d="M 148.664062 -26.84375 L 148.410156 -92.4375 C 148.410156 -115.484375 130.933594 -130.679688 109.152344 -130.679688 C 89.148438 -130.679688 77.496094 -122.324219 72.433594 -109.660156 L 70.152344 -109.660156 L 70.152344 -128.402344 L 13.929688 -128.402344 L 13.929688 -101.554688 L 28.113281 -101.554688 L 28.113281 -26.84375 L 13.929688 -26.84375 L 13.929688 0 L 85.09375 0 L 85.09375 -26.84375 L 70.152344 -26.84375 L 70.152344 -95.730469 C 70.152344 -95.730469 78.003906 -101.050781 88.640625 -101.050781 C 99.277344 -101.050781 106.367188 -93.957031 106.367188 -83.320312 L 106.367188 0 L 163.605469 0 L 163.605469 -26.84375 Z M 148.664062 -26.84375 "/></g></g></g><g fill="#ffffff" fill-opacity="1"><g transform="translate(784.516826, 503.399576)"><g><path d="M 66.101562 -98.011719 L 96.492188 -98.011719 L 96.492188 -128.65625 L 66.101562 -128.65625 L 66.101562 -161.070312 L 24.058594 -161.070312 L 24.058594 -128.65625 L 2.785156 -128.65625 L 2.785156 -98.011719 L 24.058594 -98.011719 L 24.058594 -42.039062 C 24.058594 -16.714844 42.039062 0 69.394531 0 L 96.996094 0 L 96.996094 -30.644531 L 78.003906 -30.644531 C 70.914062 -30.644531 66.101562 -35.960938 66.101562 -44.066406 Z M 66.101562 -98.011719 "/></g></g></g><g fill="#ffffff" fill-opacity="1"><g transform="translate(887.82282, 503.399576)"><g><path d="M 135.746094 -89.90625 L 135.746094 -91.933594 C 151.195312 -93.707031 162.085938 -109.660156 162.085938 -132.199219 C 162.085938 -162.84375 140.304688 -183.105469 107.632812 -183.105469 L 17.726562 -183.105469 L 17.726562 -156.261719 L 30.390625 -156.261719 L 30.390625 -26.84375 L 17.726562 -26.84375 L 17.726562 0 L 108.140625 0 C 142.078125 0 164.617188 -20.515625 164.617188 -50.90625 C 164.617188 -72.9375 152.714844 -88.640625 135.746094 -89.90625 Z M 98.011719 -150.433594 C 110.671875 -150.183594 119.285156 -140.304688 119.285156 -125.363281 C 119.285156 -113.207031 110.421875 -105.101562 96.996094 -105.101562 L 74.203125 -105.101562 L 74.203125 -150.6875 Z M 99.023438 -32.417969 L 74.203125 -32.417969 L 74.203125 -75.472656 L 98.265625 -75.472656 C 111.179688 -75.472656 120.042969 -67.113281 120.804688 -54.449219 C 120.804688 -41.28125 111.941406 -32.417969 99.023438 -32.417969 Z M 99.023438 -32.417969 "/></g></g></g><g fill="#ffffff" fill-opacity="1"><g transform="translate(1062.784689, 503.399576)"><g><path d="M 71.164062 2.28125 C 108.140625 2.28125 132.707031 -26.84375 132.707031 -64.074219 C 132.707031 -101.554688 108.140625 -130.679688 71.164062 -130.679688 C 34.695312 -130.679688 10.128906 -101.554688 10.128906 -64.582031 C 10.128906 -22.792969 33.683594 2.28125 71.164062 2.28125 Z M 71.164062 -28.113281 C 59.769531 -28.113281 52.171875 -41.027344 52.171875 -65.085938 C 52.171875 -83.574219 59.769531 -100.796875 71.164062 -100.796875 C 82.816406 -100.796875 90.414062 -83.828125 90.414062 -64.835938 C 90.414062 -45.332031 82.816406 -28.113281 71.164062 -28.113281 Z M 71.164062 -28.113281 "/></g></g></g><g fill="#ffffff" fill-opacity="1"><g transform="translate(1205.336838, 503.399576)"><g><path d="M 120.804688 -101.050781 L 141.066406 -101.050781 L 141.066406 -127.894531 L 89.148438 -127.894531 L 72.433594 -79.777344 L 70.40625 -79.777344 L 53.4375 -127.894531 L 2.027344 -127.894531 L 2.027344 -101.050781 L 21.78125 -101.050781 L 40.773438 -65.59375 L 20.765625 -26.84375 L 1.265625 -26.84375 L 1.265625 0 L 52.929688 0 L 70.40625 -50.90625 L 72.433594 -50.90625 L 89.398438 0 L 141.066406 0 L 141.066406 -26.84375 L 122.070312 -26.84375 L 102.0625 -65.59375 Z M 120.804688 -101.050781 "/></g></g></g><g clip-path="url(#6665d69eb3)"><path fill="#ffffff" d="M 904.191406 299.316406 L 1385.570312 299.316406 L 1385.570312 524.195312 L 904.191406 524.195312 Z M 904.191406 299.316406 " fill-opacity="1" fill-rule="nonzero"/></g><g fill="#023d6b" fill-opacity="1"><g transform="translate(904.199961, 503.399576)"><g><path d="M 135.746094 -89.90625 L 135.746094 -91.933594 C 151.195312 -93.707031 162.085938 -109.660156 162.085938 -132.199219 C 162.085938 -162.84375 140.304688 -183.105469 107.632812 -183.105469 L 17.726562 -183.105469 L 17.726562 -156.261719 L 30.390625 -156.261719 L 30.390625 -26.84375 L 17.726562 -26.84375 L 17.726562 0 L 108.140625 0 C 142.078125 0 164.617188 -20.515625 164.617188 -50.90625 C 164.617188 -72.9375 152.714844 -88.640625 135.746094 -89.90625 Z M 98.011719 -150.433594 C 110.671875 -150.183594 119.285156 -140.304688 119.285156 -125.363281 C 119.285156 -113.207031 110.421875 -105.101562 96.996094 -105.101562 L 74.203125 -105.101562 L 74.203125 -150.6875 Z M 99.023438 -32.417969 L 74.203125 -32.417969 L 74.203125 -75.472656 L 98.265625 -75.472656 C 111.179688 -75.472656 120.042969 -67.113281 120.804688 -54.449219 C 120.804688 -41.28125 111.941406 -32.417969 99.023438 -32.417969 Z M 99.023438 -32.417969 "/></g></g></g><g fill="#023d6b" fill-opacity="1"><g transform="translate(1079.16183, 503.399576)"><g><path d="M 71.164062 2.28125 C 108.140625 2.28125 132.707031 -26.84375 132.707031 -64.074219 C 132.707031 -101.554688 108.140625 -130.679688 71.164062 -130.679688 C 34.695312 -130.679688 10.128906 -101.554688 10.128906 -64.582031 C 10.128906 -22.792969 33.683594 2.28125 71.164062 2.28125 Z M 71.164062 -28.113281 C 59.769531 -28.113281 52.171875 -41.027344 52.171875 -65.085938 C 52.171875 -83.574219 59.769531 -100.796875 71.164062 -100.796875 C 82.816406 -100.796875 90.414062 -83.828125 90.414062 -64.835938 C 90.414062 -45.332031 82.816406 -28.113281 71.164062 -28.113281 Z M 71.164062 -28.113281 "/></g></g></g><g fill="#023d6b" fill-opacity="1"><g transform="translate(1221.713978, 503.399576)"><g><path d="M 120.804688 -101.050781 L 141.066406 -101.050781 L 141.066406 -127.894531 L 89.148438 -127.894531 L 72.433594 -79.777344 L 70.40625 -79.777344 L 53.4375 -127.894531 L 2.027344 -127.894531 L 2.027344 -101.050781 L 21.78125 -101.050781 L 40.773438 -65.59375 L 20.765625 -26.84375 L 1.265625 -26.84375 L 1.265625 0 L 52.929688 0 L 70.40625 -50.90625 L 72.433594 -50.90625 L 89.398438 0 L 141.066406 0 L 141.066406 -26.84375 L 122.070312 -26.84375 L 102.0625 -65.59375 Z M 120.804688 -101.050781 "/></g></g></g></svg>